<?xml version="1.0" standalone="no"?>
<!DOCTYPE svg PUBLIC "-//W3C//DTD SVG 20010904//EN"
 "http://www.w3.org/TR/2001/REC-SVG-20010904/DTD/svg10.dtd">
<svg version="1.0" xmlns="http://www.w3.org/2000/svg"
 width="577.000000pt" height="432.000000pt" viewBox="0 0 577.000000 432.000000"
 preserveAspectRatio="xMidYMid meet">

<g transform="translate(0.000000,432.000000) scale(0.100000,-0.100000)"
fill="#000000" stroke="none">
<path d="M2760 3060 c-295 -40 -555 -227 -692 -501 -107 -214 -122 -491 -38
-717 58 -154 157 -293 280 -394 125 -101 282 -170 445 -194 491 -75 960 268
1036 759 16 102 6 294 -21 387 -125 440 -555 721 -1010 660z m651 -586 c38
-19 73 -91 63 -131 -25 -106 -144 -141 -218 -64 -98 102 29 261 155 195z
m-868 -155 c27 -14 375 -361 399 -398 43 -64 0 -170 -74 -186 -70 -16 -87 -4
-286 195 -105 104 -197 199 -206 212 -34 49 -12 143 42 172 33 18 95 20 125 5z
m644 -123 c27 -29 33 -44 33 -81 0 -76 -49 -125 -125 -125 -100 0 -158 108
-102 191 31 46 63 61 117 55 35 -3 51 -11 77 -40z"/>
</g>
</svg>
